<svg width="242" height="77" viewBox="0 0 242 77" fill="none" xmlns="http://www.w3.org/2000/svg">
<mask id="path-1-inside-1_1_444" fill="white">
<path d="M0 0H242V76.888H0V0Z"/>
</mask>
<path d="M242 0H240.521V76.888H242H243.479V0H242Z" fill="#282828" mask="url(#path-1-inside-1_1_444)"/>
<rect x="50.0266" y="25.1367" width="26.6151" height="26.6151" rx="13.2654" fill="#282828"/>
<path d="M60.065 37.04V39.2579H61.7284V43.1393H63.9464V39.2579H65.6098L66.1643 37.04H63.9464V35.931C63.9464 35.784 64.0048 35.6429 64.1088 35.539C64.2128 35.435 64.3538 35.3766 64.5008 35.3766H66.1643V33.1586H64.5008C63.7656 33.1586 63.0604 33.4507 62.5405 33.9707C62.0205 34.4906 61.7284 35.1957 61.7284 35.931V37.04H60.065Z" stroke="#BDBDBD" stroke-width="0.829089" stroke-linecap="round" stroke-linejoin="round"/>
<rect x="88.4706" y="25.1367" width="26.6151" height="26.6151" rx="13.2654" fill="#282828"/>
<path d="M103.91 33.2977C105.365 33.2978 106.543 34.4765 106.543 35.9311V40.367C106.543 41.8215 105.364 43.0003 103.91 43.0003H99.4741C98.0195 43.0003 96.8408 41.8215 96.8407 40.367V35.9311C96.8407 34.4765 98.0195 33.2977 99.4741 33.2977H103.91ZM99.4741 34.1285C98.4788 34.1285 97.6715 34.9358 97.6715 35.9311V40.367C97.6715 41.3622 98.4788 42.1686 99.4741 42.1686H103.91C104.905 42.1685 105.712 41.3622 105.712 40.367V35.9311C105.712 34.9359 104.905 34.1286 103.91 34.1285H99.4741ZM101.692 36.0702C102.84 36.0702 103.771 37.0007 103.771 38.149C103.771 39.2973 102.84 40.2278 101.692 40.2279C100.544 40.2279 99.6132 39.2974 99.6132 38.149C99.6132 37.0007 100.544 36.0702 101.692 36.0702ZM101.692 36.9009C101.003 36.9009 100.444 37.46 100.444 38.149C100.444 38.838 101.003 39.3961 101.692 39.3961C102.381 39.3961 102.939 38.838 102.939 38.149C102.939 37.46 102.381 36.901 101.692 36.9009ZM104.187 35.2385C104.417 35.2385 104.603 35.4242 104.603 35.6538V35.6548C104.603 35.8844 104.417 36.0711 104.187 36.0712C103.958 36.0712 103.772 35.8845 103.772 35.6548V35.6538C103.772 35.4242 103.958 35.2385 104.187 35.2385Z" fill="#BDBDBD"/>
<rect x="126.915" y="25.1367" width="26.6151" height="26.6151" rx="13.2654" fill="#282828"/>
<path d="M145.299 33.6897C144.745 33.9614 144.201 34.0717 143.636 34.2386C143.014 33.5372 142.092 33.4984 141.207 33.83C140.321 34.1616 139.741 34.9722 139.754 35.9021V36.4566C137.955 36.5026 136.352 35.6831 135.318 34.2386C135.318 34.2386 133 38.3601 137.536 40.3379C136.498 41.0294 135.463 41.4957 134.209 41.4469C136.044 42.4466 138.043 42.7904 139.773 42.288C141.758 41.7114 143.389 40.2237 144.015 37.9952C144.202 37.3175 144.295 36.6173 144.291 35.9143C144.29 35.7762 145.128 34.3773 145.299 33.6892V33.6897Z" stroke="#BDBDBD" stroke-width="0.829089" stroke-linecap="round" stroke-linejoin="round"/>
<rect x="165.359" y="25.1367" width="26.6151" height="26.6151" rx="13.2654" fill="#282828"/>
<path d="M182.432 33.8233C183.274 33.8234 183.957 34.5056 183.957 35.3477V40.8926C183.957 41.7346 183.274 42.4169 182.432 42.4169H174.669C173.827 42.4169 173.145 41.7346 173.145 40.8926V35.3477C173.145 34.5056 173.827 33.8234 174.669 33.8233H182.432ZM173.976 40.8926C173.976 41.2753 174.287 41.5851 174.669 41.5852H182.432C182.815 41.5851 183.125 41.2753 183.125 40.8926V36.1246L178.781 39.0204C178.641 39.1134 178.459 39.1135 178.32 39.0204L173.976 36.1236V40.8926ZM174.669 34.6541C174.357 34.6542 174.096 34.8624 174.009 35.1469L178.55 38.175L183.092 35.1469C183.005 34.8625 182.745 34.6541 182.432 34.6541H174.669Z" fill="#BDBDBD"/>
</svg>
