<svg width="15" height="15" viewBox="0 0 15 15" fill="none" xmlns="http://www.w3.org/2000/svg">
<path d="M9.70803 1.40578C9.96671 1.40602 10.1771 1.61613 10.1771 1.87486V2.65602H10.9573C11.9065 2.65602 12.6766 3.42611 12.6766 4.37535V11.8748C12.6765 12.8239 11.9064 13.5941 10.9573 13.5941H3.45782C2.50866 13.5941 1.73862 12.8239 1.73849 11.8748V4.37535C1.73849 3.42611 2.50858 2.65602 3.45782 2.65602H4.23897V1.87486C4.23897 1.61598 4.44918 1.40578 4.70806 1.40578C4.96673 1.40603 5.17715 1.61614 5.17715 1.87486V2.65602H9.23894V1.87486C9.23894 1.61598 9.44915 1.40578 9.70803 1.40578ZM2.67667 7.34392V11.8748C2.6768 12.3062 3.02643 12.656 3.45782 12.656H10.9573C11.3887 12.656 11.7383 12.3062 11.7384 11.8748V7.34392H2.67667ZM3.45782 3.59419C3.02635 3.59419 2.67667 3.94387 2.67667 4.37535V6.40574H11.7384V4.37535C11.7384 3.94387 11.3888 3.59419 10.9573 3.59419H10.1771V4.37535C10.1769 4.63386 9.96655 4.8432 9.70803 4.84344C9.44931 4.84344 9.2392 4.63401 9.23894 4.37535V3.59419H5.17715V4.37535C5.17689 4.63385 4.96657 4.84318 4.70806 4.84344C4.44934 4.84344 4.23923 4.63401 4.23897 4.37535V3.59419H3.45782Z" fill="#282828"/>
</svg>
