<svg width="320" height="207" viewBox="0 0 320 207" fill="none" xmlns="http://www.w3.org/2000/svg">
<g clip-path="url(#clip0_1_128)">
<path d="M89.1556 34.0544C88.741 33.1062 88.1922 32.2226 87.526 31.4306C86.5414 30.2249 85.3125 29.2414 83.9203 28.5449C82.5281 27.8484 81.0042 27.4547 79.4489 27.3895C77.8936 27.3244 76.3422 27.5894 74.8966 28.1672C73.4511 28.7449 72.1444 29.6222 71.0623 30.7414C69.9803 31.8605 69.1475 33.1961 68.6188 34.6604C68.0901 36.1246 67.8775 37.6842 67.995 39.2364C68.1124 40.7888 68.5573 42.2986 69.3002 43.6665C70.0432 45.0346 71.0674 46.2297 72.3056 47.1733C73.1 47.7908 73.9778 48.2928 74.9129 48.6644C76.2239 49.2017 77.6271 49.4784 79.044 49.4793C81.9686 49.4728 84.7714 48.3069 86.8379 46.2373C88.9044 44.1676 90.0661 41.363 90.0682 38.4382C90.0703 36.9295 89.7597 35.4368 89.1556 34.0544ZM79.0358 29.6298C80.3082 29.6297 81.5652 29.9078 82.7187 30.4446C82.4374 30.5662 82.1417 30.6511 81.8387 30.6972C80.8419 30.8415 79.9185 31.3044 79.2063 32.0166C78.494 32.7288 78.0312 33.6523 77.8869 34.6492C77.8236 35.2083 77.5693 35.7284 77.1671 36.1218C76.7648 36.5152 76.2392 36.7577 75.6788 36.8085C74.682 36.9528 73.7586 37.4157 73.0463 38.1279C72.3341 38.8402 71.8713 39.7636 71.727 40.7605C71.6782 41.2921 71.4514 41.7917 71.0834 42.1783C70.4483 40.8365 70.1631 39.3558 70.2541 37.8741C70.3451 36.3924 70.8095 34.9578 71.604 33.7038C72.3985 32.4498 73.4973 31.4172 74.7981 30.702C76.0989 29.9868 77.5596 29.6124 79.044 29.6135L79.0358 29.6298ZM72.2974 44.1421C72.3952 44.0524 72.493 43.971 72.5907 43.8732C73.3156 43.1704 73.7809 42.2426 73.9107 41.2412C73.9633 40.6784 74.2146 40.1526 74.6196 39.7582C75.0093 39.3526 75.5338 39.1034 76.0944 39.0575C77.0912 38.9132 78.0146 38.4503 78.7268 37.7381C79.4391 37.0258 79.9019 36.1024 80.0462 35.1055C80.0814 34.5168 80.334 33.9621 80.755 33.5492C81.1544 33.1514 81.6838 32.9112 82.2461 32.8729C83.1619 32.7469 84.016 32.3397 84.6905 31.7076C85.4586 32.3449 86.1093 33.1115 86.6135 33.9729C86.5825 34.0147 86.547 34.053 86.5075 34.087C86.1186 34.4962 85.5948 34.7509 85.0327 34.804C84.0349 34.9458 83.1101 35.4078 82.3974 36.1205C81.6847 36.8332 81.2227 37.7581 81.081 38.756C81.0235 39.3169 80.7739 39.8408 80.3745 40.2387C79.975 40.6368 79.4503 40.8844 78.8891 40.9398C77.8894 41.0829 76.9625 41.5449 76.2462 42.2568C75.5299 42.9688 75.0623 43.8928 74.9129 44.8917C74.8691 45.2899 74.7323 45.6723 74.5137 46.008C73.6777 45.5116 72.929 44.8813 72.2974 44.1421ZM79.0358 47.2873C78.209 47.2882 77.3862 47.173 76.5914 46.9451C76.8633 46.4383 77.04 45.8859 77.1129 45.3154C77.17 44.7557 77.4184 44.2328 77.8162 43.835C78.214 43.4372 78.7369 43.1888 79.2965 43.1317C80.2948 42.989 81.2201 42.5269 81.934 41.8145C82.6477 41.1022 83.1118 40.1777 83.2565 39.1797C83.3136 38.62 83.562 38.0971 83.9598 37.6993C84.3576 37.3015 84.8805 37.0531 85.4402 36.9959C86.1914 36.8982 86.9074 36.6185 87.526 36.1811C87.8696 37.4831 87.9102 38.8465 87.645 40.1667C87.3798 41.4869 86.8156 42.7289 85.9959 43.7972C85.1762 44.8655 84.1228 45.7319 82.9162 46.3298C81.7097 46.9278 80.3824 47.2414 79.0358 47.2466V47.2873Z" fill="#9D9FA2"/>
<path d="M151.252 32.0744V44.8006H148.624V32.0744H151.252ZM156.747 39.7515H151.252V37.1235L156.747 37.1075V39.7515ZM157.783 34.7024H151.252V32.0744H157.783V34.7024ZM157.783 44.8006H151.252V42.1725L157.783 42.1566V44.8006Z" fill="#9D9FA2"/>
<path d="M142.964 32.0585V44.8006H140.336V32.0585H142.964ZM147.025 34.6865H136.274V32.0744L147.025 32.0585V34.6865Z" fill="#9D9FA2"/>
<path d="M130.748 32.0585L125.269 44.8006H122.306L127.785 32.0585H130.748ZM130.764 32.0585L136.275 44.8006H133.312L127.801 32.0585H130.764ZM132.994 42.4433H125.428V39.7356L132.994 39.7197V42.4433Z" fill="#9D9FA2"/>
<path d="M109.07 32.0585H114.453C116.226 32.0585 117.713 32.3452 118.913 32.9186C120.113 33.492 120.713 34.6122 120.713 36.2793C120.713 37.2668 120.394 38.0473 119.757 38.6207C119.131 39.1834 118.35 39.5763 117.416 39.7993C116.492 40.0117 115.504 40.1179 114.453 40.1179H111.761V44.7847V44.8006H109.07V32.0585ZM115.027 39.2259H118.037L120.442 44.8006H117.432L115.027 39.2259ZM114.453 37.5535C115.292 37.5535 115.934 37.511 116.38 37.4261C116.837 37.3305 117.156 37.1819 117.336 36.9801C117.517 36.7784 117.607 36.5076 117.607 36.1678C117.607 35.828 117.517 35.5572 117.336 35.3555C117.156 35.1537 116.837 35.0051 116.38 34.9095C115.934 34.814 115.292 34.7662 114.453 34.7662H111.761V37.5535H114.453Z" fill="#9D9FA2"/>
<path d="M107.471 32.0585L98.9175 43.0804L98.7901 39.417L104.269 32.0585H107.471ZM99.3476 32.0585V44.8006H96.7195V32.0585H99.3476ZM100.144 39.2896L101.8 37.4579L107.471 44.8006H104.269L100.144 39.2896Z" fill="#9D9FA2"/>
</g>
<g clip-path="url(#clip1_1_128)">
<path d="M79.6503 90.4809C79.3807 90.7521 79.1742 91.0794 79.0456 91.4395C78.9169 91.7997 78.8693 92.1837 78.9061 92.5644L78.8933 92.5516C78.9312 92.9996 78.8707 93.4505 78.7162 93.8728C78.5618 94.2951 78.317 94.6786 77.9991 94.9965C77.681 95.3144 77.2975 95.5592 76.8751 95.7136C76.4527 95.868 76.0017 95.9285 75.5537 95.8906L75.5665 95.9034C75.0304 95.8535 74.4921 95.9701 74.0247 96.2374C73.5574 96.5046 73.1839 96.9095 72.9551 97.3967C72.7264 97.884 72.6535 98.4299 72.7464 98.9601C72.8394 99.4903 73.0936 99.9789 73.4744 100.359C73.8553 100.74 74.3442 100.993 74.8745 101.086C75.405 101.178 75.9509 101.105 76.438 100.876C76.9252 100.647 77.3297 100.273 77.5966 99.8054C77.8634 99.3379 77.9796 98.7996 77.9293 98.2636L77.9428 98.2765C77.9049 97.8284 77.9653 97.3775 78.1198 96.9552C78.2743 96.533 78.5191 96.1495 78.837 95.8315C79.1551 95.5136 79.5386 95.2688 79.9609 95.1145C80.3833 94.96 80.8343 94.8996 81.2824 94.9374L81.2689 94.9246C81.7068 94.9639 82.1475 94.8922 82.5503 94.7159C82.953 94.5396 83.3047 94.2646 83.5728 93.9162C83.8409 93.5679 84.0168 93.1574 84.0839 92.7231C84.1512 92.2887 84.1076 91.8444 83.9574 91.4312C83.8071 91.0181 83.5549 90.6497 83.2243 90.3599C82.8937 90.0702 82.4953 89.8686 82.066 89.7739C81.6367 89.6791 81.1904 89.6942 80.7685 89.8177C80.3466 89.9414 79.9627 90.1694 79.6524 90.4809H79.6503Z" fill="#9D9FA2"/>
<path d="M74.4002 94.2243L74.3867 94.2115C74.7675 94.2499 75.1522 94.2031 75.5128 94.0747C75.8734 93.9462 76.2009 93.7393 76.4717 93.4688C76.7424 93.1982 76.9498 92.8709 77.0785 92.5104C77.2072 92.15 77.2543 91.7655 77.2162 91.3847L77.2297 91.3975C77.1919 90.9494 77.2524 90.4985 77.4067 90.0762C77.5612 89.654 77.806 89.2705 78.124 88.9525C78.442 88.6346 78.8256 88.3898 79.2479 88.2355C79.6703 88.081 80.1212 88.0206 80.5694 88.0584L80.5559 88.0456C81.092 88.096 81.6305 87.9797 82.0981 87.7128C82.5657 87.4458 82.9395 87.0412 83.1686 86.554C83.3977 86.0668 83.4709 85.5209 83.3783 84.9906C83.2856 84.4602 83.0317 83.9714 82.6509 83.5908C82.2702 83.2101 81.7812 82.9561 81.2508 82.8635C80.7204 82.7708 80.1744 82.844 79.6871 83.0731C79.1998 83.3022 78.7951 83.6759 78.5281 84.1434C78.2611 84.6109 78.1448 85.1494 78.1952 85.6854L78.1824 85.6719C78.2203 86.1199 78.16 86.5709 78.0056 86.9932C77.8512 87.4156 77.6064 87.7991 77.2884 88.1171C76.9704 88.435 76.5868 88.6798 76.1644 88.8341C75.7419 88.9885 75.2909 89.0488 74.8427 89.0109L74.8555 89.0244C74.4747 88.9861 74.09 89.0328 73.7294 89.1613C73.3689 89.2897 73.0413 89.4967 72.7705 89.7672C72.4997 90.0377 72.2925 90.3651 72.1637 90.7255C72.035 91.086 71.988 91.4705 72.026 91.8513L72.0132 91.8385C72.0509 92.2865 71.9904 92.7374 71.8359 93.1596C71.6814 93.5818 71.4366 93.9653 71.1187 94.2832C70.8007 94.6011 70.4172 94.8458 69.9949 95.0003C69.5726 95.1547 69.1216 95.2152 68.6736 95.1775L68.6864 95.1903C68.1503 95.14 67.6117 95.2562 67.1441 95.5232C66.6765 95.7901 66.3027 96.1948 66.0736 96.682C65.8445 97.1692 65.7713 97.7151 65.8639 98.2454C65.9566 98.7757 66.2106 99.2646 66.5913 99.6452C66.9721 100.026 67.461 100.28 67.9914 100.372C68.5218 100.465 69.0679 100.392 69.5551 100.163C70.0424 99.9338 70.4471 99.56 70.7141 99.0926C70.9811 98.625 71.0974 98.0866 71.047 97.5506L71.0605 97.5634C71.0227 97.1153 71.0832 96.6645 71.2376 96.2421C71.392 95.8199 71.6368 95.4364 71.9548 95.1184C72.2728 94.8005 72.6564 94.5558 73.0787 94.4014C73.5011 94.247 73.952 94.1865 74.4002 94.2243Z" fill="#9D9FA2"/>
<path d="M69.6334 92.7971C69.903 92.5259 70.1095 92.1986 70.238 91.8384C70.3665 91.4783 70.4139 91.0942 70.3769 90.7136L70.3904 90.7264C70.3525 90.2782 70.413 89.8272 70.5675 89.4048C70.722 88.9824 70.9669 88.5988 71.2851 88.2809C71.6033 87.9629 71.987 87.7182 72.4095 87.5639C72.8321 87.4096 73.2832 87.3493 73.7314 87.3873L73.7179 87.3745C74.2538 87.4247 74.7922 87.3084 75.2596 87.0415C75.7269 86.7746 76.1005 86.37 76.3295 85.883C76.5585 85.396 76.6316 84.8502 76.539 84.3201C76.4464 83.79 76.1924 83.3014 75.8118 82.9208C75.4312 82.5403 74.9424 82.2864 74.4123 82.1938C73.8821 82.1011 73.3362 82.1743 72.8491 82.4032C72.3619 82.6321 71.9573 83.0057 71.6904 83.473C71.4234 83.9403 71.307 84.4785 71.3573 85.0143L71.3445 85.0015C71.3823 85.4495 71.3218 85.9004 71.1674 86.3227C71.0129 86.745 70.7682 87.1285 70.4502 87.4464C70.1322 87.7644 69.7486 88.0091 69.3263 88.1635C68.9039 88.3179 68.4529 88.3784 68.0048 88.3405L68.0176 88.3534C67.5797 88.3141 67.1391 88.386 66.7364 88.5623C66.3337 88.7387 65.982 89.0138 65.714 89.3622C65.446 89.7106 65.2703 90.121 65.2031 90.5554C65.136 90.9898 65.1796 91.4341 65.3299 91.8471C65.4802 92.2602 65.7324 92.6286 66.063 92.9182C66.3937 93.208 66.7921 93.4095 67.2214 93.5043C67.6507 93.5989 68.0969 93.5838 68.5188 93.4602C68.9407 93.3366 69.3245 93.1085 69.6348 92.7971H69.6334Z" fill="#9D9FA2"/>
<path d="M156.361 86.5296C156.08 86.5296 155.846 86.509 155.661 86.4678C155.482 86.4266 155.334 86.3545 155.218 86.2515C155.108 86.1484 155.029 86.0076 154.981 85.8291C154.939 85.6505 154.919 85.4204 154.919 85.1388C154.919 84.8572 154.939 84.6271 154.981 84.4485C155.029 84.2631 155.108 84.1154 155.218 84.0055C155.334 83.8957 155.482 83.8201 155.661 83.7789C155.846 83.7377 156.08 83.7171 156.361 83.7171C156.643 83.7171 156.873 83.7377 157.051 83.7789C157.237 83.8201 157.385 83.8957 157.494 84.0055C157.604 84.1154 157.68 84.2631 157.721 84.4485C157.762 84.6271 157.783 84.8572 157.783 85.1388C157.783 85.4204 157.762 85.6505 157.721 85.8291C157.68 86.0076 157.604 86.1484 157.494 86.2515C157.385 86.3545 157.237 86.4266 157.051 86.4678C156.873 86.509 156.643 86.5296 156.361 86.5296ZM155.135 88.3738H157.587V99.2428H155.135V88.3738Z" fill="#9D9FA2"/>
<path d="M142.113 88.3737H144.555V95.7812C144.555 96.0696 144.572 96.3135 144.606 96.5126C144.647 96.7118 144.73 96.8766 144.853 97.0071C144.977 97.1308 145.156 97.2235 145.389 97.2853C145.623 97.3403 145.935 97.3677 146.327 97.3677C146.739 97.3677 147.113 97.3471 147.45 97.3059C147.786 97.2578 148.075 97.2063 148.315 97.1514C148.597 97.0827 148.851 97.0071 149.077 96.9247V88.3737H151.519V99.2428H149.726L149.438 98.4392C149.053 98.6521 148.638 98.841 148.191 99.0058C147.807 99.1432 147.36 99.2702 146.852 99.387C146.351 99.5038 145.818 99.5621 145.255 99.5621C144.191 99.5621 143.401 99.2805 142.886 98.7173C142.37 98.1473 142.113 97.2613 142.113 96.0593V88.3737Z" fill="#9D9FA2"/>
<path d="M130.925 97.1514C131.227 97.22 131.563 97.2819 131.934 97.3368C132.25 97.3849 132.621 97.4261 133.047 97.4604C133.48 97.4948 133.953 97.5119 134.469 97.5119C135.032 97.5119 135.478 97.4913 135.808 97.4501C136.138 97.4089 136.385 97.3402 136.55 97.2441C136.721 97.1411 136.831 97.0037 136.879 96.832C136.927 96.6603 136.951 96.4439 136.951 96.1829C136.951 96.0456 136.941 95.9219 136.921 95.812C136.907 95.6953 136.866 95.5923 136.797 95.503C136.735 95.4068 136.639 95.3278 136.508 95.266C136.385 95.1973 136.217 95.1458 136.004 95.1115L133.727 94.6891C133.205 94.5998 132.765 94.4796 132.408 94.3285C132.051 94.1774 131.762 93.9782 131.543 93.731C131.33 93.4768 131.175 93.1678 131.079 92.8038C130.99 92.4329 130.945 91.983 130.945 91.4541C130.945 90.314 131.323 89.4658 132.078 88.9094C132.841 88.3463 133.926 88.0647 135.334 88.0647C135.828 88.0647 136.282 88.0956 136.694 88.1574C137.113 88.2123 137.477 88.2776 137.786 88.3531C138.143 88.4355 138.469 88.5283 138.765 88.6313V90.3827C138.435 90.3277 138.092 90.2797 137.734 90.2385C137.425 90.2041 137.079 90.1698 136.694 90.1354C136.316 90.1011 135.932 90.0839 135.54 90.0839C135.094 90.0839 134.723 90.1045 134.427 90.1457C134.132 90.1801 133.899 90.2419 133.727 90.3312C133.555 90.4205 133.435 90.5372 133.366 90.6815C133.298 90.8188 133.263 90.994 133.263 91.2069C133.263 91.3717 133.277 91.5194 133.304 91.6499C133.332 91.7804 133.39 91.8971 133.48 92.0002C133.569 92.1032 133.692 92.1925 133.85 92.268C134.008 92.3436 134.221 92.4054 134.489 92.4535L136.848 92.8965C137.309 92.9858 137.697 93.1025 138.013 93.2468C138.335 93.391 138.596 93.5867 138.796 93.834C138.995 94.0812 139.139 94.3972 139.228 94.7818C139.318 95.1596 139.362 95.6266 139.362 96.1829C139.362 96.7118 139.307 97.1857 139.197 97.6047C139.094 98.0236 138.881 98.3773 138.559 98.6658C138.236 98.9543 137.779 99.1741 137.188 99.3252C136.598 99.4831 135.818 99.5621 134.85 99.5621C134.314 99.5621 133.809 99.5243 133.335 99.4488C132.861 99.3801 132.446 99.3011 132.089 99.2118C131.67 99.1088 131.282 98.9921 130.925 98.8616V97.1514Z" fill="#9D9FA2"/>
<path d="M120.251 97.1514C120.553 97.22 120.89 97.2819 121.261 97.3368C121.577 97.3849 121.948 97.4261 122.374 97.4604C122.806 97.4948 123.28 97.5119 123.795 97.5119C124.358 97.5119 124.805 97.4913 125.135 97.4501C125.464 97.4089 125.711 97.3402 125.876 97.2441C126.048 97.1411 126.158 97.0037 126.206 96.832C126.254 96.6603 126.278 96.4439 126.278 96.1829C126.278 96.0456 126.268 95.9219 126.247 95.812C126.233 95.6953 126.192 95.5923 126.124 95.503C126.062 95.4068 125.966 95.3278 125.835 95.266C125.711 95.1973 125.543 95.1458 125.33 95.1115L123.053 94.6891C122.531 94.5998 122.092 94.4796 121.735 94.3285C121.378 94.1774 121.089 93.9782 120.869 93.731C120.656 93.4768 120.502 93.1678 120.406 92.8038C120.316 92.4329 120.272 91.983 120.272 91.4541C120.272 90.314 120.65 89.4658 121.405 88.9094C122.167 88.3463 123.253 88.0647 124.661 88.0647C125.155 88.0647 125.608 88.0956 126.021 88.1574C126.44 88.2123 126.804 88.2776 127.113 88.3531C127.47 88.4355 127.796 88.5283 128.091 88.6313V90.3827C127.762 90.3277 127.418 90.2797 127.061 90.2385C126.752 90.2041 126.405 90.1698 126.021 90.1354C125.643 90.1011 125.258 90.0839 124.867 90.0839C124.42 90.0839 124.049 90.1045 123.754 90.1457C123.459 90.1801 123.225 90.2419 123.053 90.3312C122.882 90.4205 122.762 90.5372 122.693 90.6815C122.624 90.8188 122.59 90.994 122.59 91.2069C122.59 91.3717 122.604 91.5194 122.631 91.6499C122.659 91.7804 122.717 91.8971 122.806 92.0002C122.896 92.1032 123.019 92.1925 123.177 92.268C123.335 92.3436 123.548 92.4054 123.816 92.4535L126.175 92.8965C126.635 92.9858 127.023 93.1025 127.339 93.2468C127.662 93.391 127.923 93.5867 128.122 93.834C128.321 94.0812 128.466 94.3972 128.555 94.7818C128.644 95.1596 128.689 95.6266 128.689 96.1829C128.689 96.7118 128.634 97.1857 128.524 97.6047C128.421 98.0236 128.208 98.3773 127.885 98.6658C127.562 98.9543 127.106 99.1741 126.515 99.3252C125.924 99.4831 125.145 99.5621 124.176 99.5621C123.641 99.5621 123.136 99.5243 122.662 99.4488C122.188 99.3801 121.773 99.3011 121.415 99.2118C120.996 99.1088 120.608 98.9921 120.251 98.8616V97.1514Z" fill="#9D9FA2"/>
<path d="M108.064 96.1623C108.064 95.5442 108.153 95.0222 108.331 94.5964C108.517 94.1705 108.764 93.8271 109.073 93.5661C109.389 93.3051 109.757 93.1163 110.176 92.9995C110.601 92.8827 111.058 92.8244 111.546 92.8244C112.04 92.8244 112.487 92.8518 112.885 92.9068C113.29 92.9617 113.641 93.0235 113.936 93.0922C114.272 93.1678 114.578 93.2536 114.853 93.3498V92.3401C114.853 92.086 114.843 91.8731 114.822 91.7014C114.808 91.5228 114.781 91.3683 114.739 91.2378C114.698 91.1073 114.64 90.9974 114.564 90.9081C114.496 90.8188 114.41 90.733 114.307 90.6506C114.087 90.4926 113.785 90.3793 113.4 90.3106C113.016 90.2419 112.514 90.2076 111.896 90.2076C111.505 90.2076 111.123 90.2213 110.752 90.2488C110.388 90.2694 110.062 90.2968 109.774 90.3312C109.437 90.3655 109.118 90.4033 108.816 90.4445V88.7343C109.09 88.6244 109.43 88.5248 109.836 88.4355C110.179 88.36 110.608 88.2913 111.123 88.2295C111.638 88.1608 112.25 88.1265 112.957 88.1265C113.431 88.1265 113.85 88.1471 114.214 88.1883C114.585 88.2226 114.911 88.2844 115.193 88.3737C115.474 88.463 115.722 88.5798 115.935 88.724C116.154 88.8682 116.35 89.0468 116.522 89.2597C116.666 89.4383 116.786 89.6272 116.882 89.8264C116.979 90.0255 117.058 90.2591 117.119 90.5269C117.181 90.7948 117.222 91.1039 117.243 91.4541C117.27 91.7976 117.284 92.1993 117.284 92.6595V99.2427H115.213L115.028 98.4392C114.726 98.6521 114.393 98.841 114.029 99.0058C113.713 99.1432 113.342 99.2702 112.916 99.387C112.497 99.5037 112.033 99.5621 111.525 99.5621C110.907 99.5621 110.378 99.5003 109.939 99.3767C109.499 99.253 109.138 99.0573 108.857 98.7894C108.582 98.5216 108.379 98.1713 108.249 97.7386C108.125 97.3059 108.064 96.7805 108.064 96.1623ZM110.567 96.1623C110.567 96.4645 110.605 96.7049 110.68 96.8835C110.756 97.0621 110.866 97.1994 111.01 97.2956C111.154 97.3849 111.329 97.4433 111.535 97.4707C111.748 97.4982 111.989 97.5119 112.257 97.5119C112.607 97.5119 112.937 97.481 113.246 97.4192C113.562 97.3505 113.84 97.2784 114.08 97.2029C114.355 97.1136 114.612 97.0106 114.853 96.8938V95.0085C114.633 94.9673 114.396 94.9295 114.142 94.8951C113.922 94.8608 113.671 94.8333 113.39 94.8127C113.115 94.7852 112.823 94.7715 112.514 94.7715C112.171 94.7715 111.875 94.7887 111.628 94.823C111.388 94.8505 111.189 94.9157 111.031 95.0188C110.873 95.1149 110.756 95.2557 110.68 95.4412C110.605 95.6197 110.567 95.8601 110.567 96.1623Z" fill="#9D9FA2"/>
<path d="M90.7658 84.5413H95.0516L97.7714 93.4013H97.8538L100.666 84.5413H104.88V99.2428H102.418V86.8387H102.356L102.078 87.7659C102.002 88.0269 101.92 88.3016 101.831 88.5901C101.741 88.8717 101.662 89.1155 101.594 89.3216L99.698 95.2558H95.9994L94.0626 89.2804C93.9939 89.0743 93.9149 88.8339 93.8256 88.5592C93.7363 88.2776 93.6539 88.0097 93.5783 87.7556C93.4891 87.4603 93.3963 87.1546 93.3002 86.8387H93.2384V99.2428H90.7658V84.5413Z" fill="#9D9FA2"/>
</g>
<g clip-path="url(#clip2_1_128)">
<g clip-path="url(#clip3_1_128)">
<path d="M83.4464 154.704H86.4381L85.5671 153.833C85.3362 153.602 85.0229 153.472 84.6962 153.472H83.4464C78.6846 153.472 74.8244 149.612 74.8244 144.851C74.8244 140.089 78.6846 136.229 83.4464 136.229H93.3001C98.0619 136.229 101.922 140.089 101.922 144.851C101.922 149.612 98.0619 153.472 93.3001 153.472H89.614C89.124 153.472 88.6541 153.278 88.3076 152.931L87.2872 151.911C86.7097 151.333 85.9265 151.009 85.1098 151.009H83.4464C80.0451 151.009 77.2878 148.252 77.2878 144.851C77.2878 141.449 80.0451 138.692 83.4464 138.692H93.3001C96.7014 138.692 99.4587 141.449 99.4587 144.851C99.4587 148.252 96.7014 151.009 93.3001 151.009H90.9333C90.4433 151.009 89.9733 150.814 89.6268 150.468L88.6064 149.448C88.0289 148.87 87.2457 148.546 86.429 148.546H83.4464C81.4056 148.546 79.7512 146.891 79.7512 144.851C79.7512 142.81 81.4056 141.156 83.4464 141.156H93.3001C95.3409 141.156 96.9952 142.81 96.9952 144.851C96.9952 146.866 95.381 148.505 93.3746 148.545L93.3742 148.546H92.4729C91.9829 148.546 91.513 148.351 91.1665 148.005L90.1461 146.984C89.6723 146.51 89.0599 146.207 88.4042 146.113L88.3732 146.082H83.4464C82.7661 146.082 82.2147 145.531 82.2147 144.851C82.2147 144.17 82.7661 143.619 83.4464 143.619H93.3001C93.9804 143.619 94.5318 144.17 94.5318 144.851C94.5318 145.531 93.9804 146.082 93.3001 146.082H90.8367L91.7076 146.953C91.9386 147.184 92.2519 147.314 92.5786 147.314H93.3001C94.6606 147.314 95.7635 146.211 95.7635 144.851C95.7635 143.49 94.6606 142.387 93.3001 142.387H83.4464C82.0859 142.387 80.9829 143.49 80.9829 144.851C80.9829 146.211 82.0859 147.314 83.4464 147.314H87.9687C88.4587 147.314 88.9286 147.509 89.2751 147.855L90.2956 148.875C90.873 149.453 91.6563 149.777 92.4729 149.777H93.608V149.768C96.1856 149.609 98.227 147.468 98.227 144.851C98.227 142.13 96.0211 139.924 93.3001 139.924H83.4464C80.7254 139.924 78.5195 142.13 78.5195 144.851C78.5195 147.572 80.7254 149.777 83.4464 149.777H86.429C86.9191 149.777 87.389 149.972 87.7355 150.318L88.7559 151.339C89.3334 151.916 90.1166 152.241 90.9333 152.241H93.3001C97.3817 152.241 100.69 148.932 100.69 144.851C100.69 140.769 97.3817 137.46 93.3001 137.46H83.4464C79.3648 137.46 76.0561 140.769 76.0561 144.851C76.0561 148.932 79.3648 152.241 83.4464 152.241H85.1098C85.5998 152.241 86.0697 152.435 86.4162 152.782L87.4366 153.802C88.0141 154.38 88.7973 154.704 89.614 154.704H93.3001C98.7422 154.704 103.154 150.293 103.154 144.851C103.154 139.409 98.7422 134.997 93.3001 134.997L83.4464 134.997C78.0043 134.997 73.5926 139.409 73.5926 144.851C73.5926 150.293 78.0043 154.704 83.4464 154.704Z" fill="#9D9FA2"/>
</g>
<path d="M155.988 152.824C155.086 152.824 154.402 152.606 153.936 152.171C153.469 151.72 153.236 150.982 153.236 149.956V136.876H155.778V149.723C155.778 150.158 155.855 150.454 156.011 150.609C156.166 150.764 156.399 150.842 156.71 150.842C157.083 150.842 157.441 150.795 157.783 150.702V152.544C157.488 152.653 157.2 152.723 156.92 152.754C156.656 152.801 156.345 152.824 155.988 152.824Z" fill="#9D9FA2"/>
<path d="M150.784 152.824C149.882 152.824 149.198 152.606 148.732 152.171C148.265 151.72 148.032 150.982 148.032 149.956V136.876H150.574V149.723C150.574 150.158 150.651 150.454 150.807 150.609C150.962 150.764 151.196 150.842 151.506 150.842C151.879 150.842 152.237 150.795 152.579 150.702V152.544C152.284 152.653 151.996 152.723 151.716 152.754C151.452 152.801 151.141 152.824 150.784 152.824Z" fill="#9D9FA2"/>
<path d="M139.471 152.824C138.772 152.824 138.119 152.7 137.512 152.451C136.922 152.202 136.448 151.829 136.09 151.332C135.733 150.819 135.554 150.189 135.554 149.443C135.554 148.386 135.911 147.539 136.626 146.902C137.357 146.249 138.476 145.922 139.984 145.922H143.528V145.433C143.528 144.904 143.443 144.484 143.272 144.174C143.116 143.863 142.821 143.637 142.386 143.497C141.966 143.358 141.344 143.288 140.52 143.288C139.215 143.288 137.994 143.482 136.86 143.87V141.982C137.357 141.78 137.963 141.617 138.678 141.492C139.393 141.368 140.163 141.306 140.987 141.306C142.603 141.306 143.831 141.632 144.671 142.285C145.526 142.938 145.953 144.003 145.953 145.479V152.591H143.785L143.621 151.472C143.171 151.907 142.611 152.241 141.943 152.474C141.29 152.707 140.466 152.824 139.471 152.824ZM140.147 151.005C140.909 151.005 141.57 150.881 142.129 150.632C142.704 150.368 143.171 150.018 143.528 149.583V147.648H140.031C139.285 147.648 138.74 147.795 138.399 148.091C138.072 148.371 137.909 148.806 137.909 149.396C137.909 149.972 138.103 150.384 138.492 150.632C138.88 150.881 139.432 151.005 140.147 151.005Z" fill="#9D9FA2"/>
<path d="M132.6 152.824C131.419 152.824 130.533 152.513 129.942 151.891C129.367 151.254 129.079 150.391 129.079 149.303V143.521H127.447V141.539H129.079V138.997L131.597 138.228V141.539H134.535L134.372 143.521H131.597V149.163C131.597 149.801 131.745 150.251 132.04 150.516C132.336 150.764 132.818 150.889 133.486 150.889C133.906 150.889 134.349 150.811 134.815 150.656V152.451C134.209 152.7 133.471 152.824 132.6 152.824Z" fill="#9D9FA2"/>
<path d="M125.927 152.824C125.026 152.824 124.342 152.606 123.875 152.171C123.409 151.72 123.176 150.982 123.176 149.956V136.876H125.717V149.723C125.717 150.158 125.795 150.454 125.951 150.609C126.106 150.764 126.339 150.842 126.65 150.842C127.023 150.842 127.381 150.795 127.723 150.702V152.544C127.427 152.653 127.14 152.723 126.86 152.754C126.596 152.801 126.285 152.824 125.927 152.824Z" fill="#9D9FA2"/>
<path d="M108.33 152.591L114.066 137.575H116.91L122.6 152.591H119.988L118.496 148.72H112.457L110.965 152.591H108.33ZM112.853 146.762H118.076L115.465 139.883L112.853 146.762Z" fill="#9D9FA2"/>
</g>
<g clip-path="url(#clip4_1_128)">
<path d="M265.377 38.4548C267.727 37.0047 269.324 34.4432 269.433 31.5048C269.439 31.3259 269.292 31.1726 269.114 31.1726H267.389C267.248 31.1726 267.133 31.0576 267.133 30.9171V29.1413C267.133 28.9624 266.986 28.8155 266.801 28.8219C263.869 28.9368 261.308 30.5274 259.851 32.8782C258.401 30.5338 255.84 28.9368 252.901 28.8219C252.722 28.8155 252.569 28.9624 252.569 29.1413V30.866C252.569 31.0065 252.454 31.1215 252.313 31.1215H250.538C250.359 31.1215 250.212 31.2684 250.218 31.4537C250.333 34.3857 251.924 36.9473 254.274 38.4037C251.93 39.8601 250.333 42.4153 250.218 45.3537C250.212 45.5326 250.359 45.6859 250.538 45.6859H252.262C252.403 45.6859 252.518 45.8009 252.518 45.9414V47.7236C252.518 47.9025 252.665 48.0494 252.85 48.043C255.782 47.928 258.344 46.3375 259.8 43.9867C261.256 46.3375 263.818 47.9344 266.75 48.043C266.929 48.0494 267.082 47.9025 267.082 47.7236V45.9989C267.082 45.8584 267.197 45.7434 267.338 45.7434H269.12C269.299 45.7434 269.446 45.5965 269.439 45.4112C269.324 42.4728 267.727 39.9112 265.377 38.4548ZM259.826 37.3752C260.407 37.3752 260.88 37.8479 260.88 38.4292C260.88 39.0105 260.407 39.4832 259.826 39.4832C259.244 39.4832 258.772 39.0105 258.772 38.4292C258.772 37.8479 259.244 37.3752 259.826 37.3752ZM266.865 31.6709C266.629 34.571 264.323 36.8962 261.429 37.1581C261.276 37.1708 261.141 37.0431 261.154 36.8834C261.391 33.9833 263.697 31.6581 266.59 31.3962C266.744 31.3834 266.878 31.5112 266.865 31.6709ZM258.28 37.1006C255.38 36.8642 253.054 34.5582 252.792 31.6645C252.78 31.5112 252.907 31.377 253.067 31.3898C255.967 31.6261 258.292 33.9322 258.554 36.8259C258.567 36.9856 258.433 37.1197 258.28 37.1006ZM252.786 45.1876C253.022 42.2875 255.328 39.9623 258.222 39.7004C258.376 39.6877 258.51 39.8154 258.497 39.9751C258.261 42.8752 255.954 45.2004 253.061 45.4623C252.907 45.4751 252.773 45.3473 252.786 45.1876ZM261.378 39.7579C264.278 39.9943 266.603 42.3003 266.865 45.194C266.878 45.3473 266.75 45.4815 266.59 45.4687C263.69 45.2323 261.365 42.9263 261.103 40.0326C261.084 39.8729 261.218 39.7452 261.378 39.7579Z" fill="#9D9FA2"/>
</g>
<path d="M308.074 43.8139C307.116 42.9288 306.636 41.6257 306.636 39.9047C306.636 38.1775 307.116 36.8744 308.074 35.9955C309.033 35.1103 310.41 34.6678 312.205 34.6678C314.006 34.6678 315.386 35.1103 316.345 35.9955C317.303 36.8744 317.783 38.1775 317.783 39.9047C317.783 41.6257 317.303 42.9288 316.345 43.8139C315.386 44.699 314.006 45.1415 312.205 45.1415C310.41 45.1415 309.033 44.699 308.074 43.8139ZM310.407 37.5075C310.026 38.0054 309.835 38.8014 309.835 39.8954C309.835 40.9895 310.026 41.7886 310.407 42.2926C310.788 42.7966 311.387 43.0486 312.205 43.0486C313.029 43.0486 313.631 42.7966 314.012 42.2926C314.399 41.7886 314.593 40.9895 314.593 39.8954C314.593 38.8014 314.399 38.0054 314.012 37.5075C313.631 37.0096 313.029 36.7607 312.205 36.7607C311.387 36.7607 310.788 37.0096 310.407 37.5075Z" fill="#9D9FA2"/>
<path d="M301.75 44.3947V32.3075C301.75 32.1416 301.802 32.0064 301.906 31.9019C302.017 31.7912 302.152 31.7359 302.312 31.7359H304.377C304.537 31.7359 304.669 31.7912 304.774 31.9019C304.884 32.0064 304.94 32.1416 304.94 32.3075V44.3947C304.94 44.5545 304.884 44.6898 304.774 44.8004C304.669 44.9049 304.537 44.9571 304.377 44.9571H302.312C302.152 44.9571 302.017 44.9049 301.906 44.8004C301.802 44.6898 301.75 44.5545 301.75 44.3947Z" fill="#9D9FA2"/>
<path d="M290.077 44.2933C289.266 43.7278 288.86 42.9288 288.86 41.8961C288.86 40.8635 289.266 40.0706 290.077 39.5174C290.895 38.9642 291.946 38.6876 293.231 38.6876H296.282C296.282 37.9685 296.132 37.4676 295.831 37.1848C295.529 36.9021 295.001 36.7607 294.245 36.7607C293.495 36.7607 292.966 36.9482 292.659 37.3231C292.358 37.6919 291.986 37.8763 291.543 37.8763H290.17C290.004 37.8763 289.865 37.8241 289.755 37.7196C289.65 37.6089 289.598 37.4737 289.598 37.3139C289.598 35.5498 291.273 34.6678 294.623 34.6678C296.086 34.6678 297.26 34.9966 298.145 35.6543C299.03 36.3059 299.472 37.317 299.472 38.6876V44.3947C299.472 44.5607 299.42 44.6959 299.316 44.8004C299.211 44.9049 299.076 44.9571 298.91 44.9571H297.131C296.965 44.9571 296.829 44.9049 296.725 44.8004C296.62 44.6897 296.568 44.5545 296.568 44.3947V44.1089C295.597 44.8035 294.475 45.1477 293.203 45.1415C291.937 45.1415 290.895 44.8588 290.077 44.2933ZM293.452 40.7805C293.022 40.7805 292.68 40.885 292.428 41.094C292.183 41.303 292.06 41.5734 292.06 41.9054C292.06 42.2373 292.189 42.5108 292.447 42.7259C292.705 42.9411 293.071 43.0486 293.544 43.0486C294.491 43.0486 295.403 42.772 296.282 42.2188V40.7805H293.452Z" fill="#9D9FA2"/>
<path d="M288.289 44.5514C288.289 44.8219 288.129 44.9571 287.809 44.9571H285.698C285.458 44.9571 285.2 44.8741 284.923 44.7082C284.647 44.5361 284.432 44.3302 284.278 44.0904L282.655 41.5181C282.268 40.8912 281.878 40.4209 281.484 40.1075C281.091 39.7879 280.618 39.628 280.065 39.628H278.082V44.1089C278.082 44.3486 277.996 44.5514 277.824 44.7174C277.658 44.8772 277.455 44.9571 277.216 44.9571H275.482C275.243 44.9571 275.037 44.871 274.865 44.6989C274.692 44.5207 274.606 44.3117 274.606 44.072V32.6118C274.606 32.372 274.692 32.1631 274.865 31.9848C275.037 31.8066 275.243 31.7174 275.482 31.7174H277.216C277.455 31.7174 277.658 31.8066 277.824 31.9848C277.996 32.1631 278.082 32.372 278.082 32.6118V37.0281H280.065C280.605 37.0281 281.079 36.8805 281.484 36.5855C281.896 36.2905 282.287 35.8141 282.655 35.1564L284.084 32.6118C284.41 32.0217 284.853 31.7236 285.412 31.7174H287.542C287.837 31.7174 287.984 31.8465 287.984 32.1047C287.984 32.246 287.932 32.4151 287.828 32.6118L285.827 36.2351C285.538 36.7637 285.212 37.2002 284.85 37.5444C284.493 37.8886 284.026 38.1314 283.448 38.2727C283.854 38.3588 284.269 38.6139 284.693 39.038C285.123 39.4621 285.501 39.9231 285.827 40.4209L288.132 44.0904C288.236 44.2687 288.289 44.4224 288.289 44.5514Z" fill="#9D9FA2"/>
<g clip-path="url(#clip5_1_128)">
<path d="M314.068 90.8571C314.469 90.1163 314.84 89.468 315.179 88.9741C315.457 88.5728 315.704 88.5111 315.92 88.7889C316.383 89.3446 316.63 90.6719 315.889 92.2154C315.21 93.6045 313.667 95.9197 312.926 97.5557C312.154 99.2844 312.123 100.612 313.173 100.55C314.438 100.488 316.136 98.3892 317.216 96.2592C317.371 95.9814 317.587 95.9505 317.71 96.2283C317.834 96.5062 317.834 97.2779 317.433 98.1422C316.63 99.84 314.685 101.538 312.987 101.445C311.32 101.353 310.456 100.365 310.456 98.914C309.468 100.18 308.079 101.322 306.598 101.322C303.727 101.322 303.14 97.4014 305.702 93.6662C308.203 90.0237 310.641 88.6346 312.185 88.6346C313.512 88.6346 314.13 89.6533 314.068 90.8571ZM311.382 95.6418C313.327 92.2463 313.605 90.3324 312.71 90.2398C311.722 90.1472 309.468 92.1536 307.771 94.901C306.135 97.5557 305.733 100.272 306.937 100.303C308.203 100.334 309.808 98.3583 311.382 95.6418Z" fill="#9D9FA2"/>
<path d="M295.855 98.3892C294.775 99.8401 293.139 101.414 291.41 101.291C289.218 101.137 289.157 98.8523 289.836 96.8149C290.515 94.7776 292.089 91.7524 294.096 88.9433C294.343 88.6038 294.651 88.6347 294.898 88.9125C295.577 89.9311 295.423 91.3203 294.312 93.0798C293.17 94.9011 292.552 96.1358 291.904 97.6175C291.256 99.1301 291.348 100.241 292.058 100.303C293.262 100.396 294.96 98.2349 296.627 95.5493C298.572 92.4007 299.467 90.2707 300.455 88.9433C300.763 88.5112 300.979 88.4494 301.226 88.7581C301.689 89.3138 301.936 90.672 301.196 92.2155C300.516 93.6046 298.973 95.9197 298.263 97.494C297.46 99.2536 297.584 100.55 298.695 100.488C299.992 100.427 301.566 98.3892 302.77 96.2284C302.924 95.9506 303.202 95.9197 303.325 96.1976C303.449 96.4445 303.48 97.278 303.048 98.1423C302.152 99.871 300.239 101.445 298.417 101.445C296.411 101.445 295.608 100.18 295.855 98.3892Z" fill="#9D9FA2"/>
<path d="M281.206 91.8142C282.595 90.3325 284.694 88.6347 285.713 88.789C286.732 88.9434 287.689 90.4559 286.917 92.0611C286.269 93.4194 284.756 95.7037 284.046 97.3089C283.244 99.0993 283.429 100.55 284.54 100.488C285.806 100.427 287.318 98.3893 288.491 96.2284C288.646 95.9506 288.862 95.9506 289.016 96.1976C289.232 96.5371 289.17 97.2471 288.738 98.1423C287.905 99.871 285.96 101.445 284.17 101.445C281.546 101.445 280.928 99.5314 281.824 96.8458C282.842 93.8207 285.559 90.5486 285.003 90.3016C284.694 90.1781 282.904 91.0425 280.928 93.2033C279.107 95.1789 277.749 98.1423 276.422 101.044C276.298 101.322 276.113 101.445 275.835 101.167C275.218 100.55 275.032 99.5314 275.526 97.988C276.144 96.0432 278.521 91.7524 280.465 88.8816C280.682 88.5421 280.928 88.5729 281.114 88.8816C281.577 89.6534 281.546 90.7029 281.206 91.8142Z" fill="#9D9FA2"/>
<path d="M275.438 86.7208C275.839 87.5234 275.623 88.3568 275.222 88.789C274.82 89.2211 273.956 89.1285 273.493 88.3259C272.999 87.4925 273.154 86.5664 273.647 86.0416C274.141 85.5169 275.037 85.8873 275.438 86.7208ZM270.406 101.353C268.06 101.353 267.474 99.377 268.338 96.8458C269.11 94.5923 271.147 90.9498 272.289 89.3446C272.567 88.9742 272.783 88.8816 273.03 89.1594C273.493 89.6533 273.74 90.9807 272.999 92.5241C272.351 93.8824 271.054 95.9815 270.406 97.5249C269.665 99.3153 269.727 100.519 270.715 100.457C272.104 100.396 273.802 98.3584 274.728 96.2284C274.882 95.9506 275.098 95.9815 275.222 96.2284C275.469 96.7223 275.376 97.3706 275.006 98.1423C274.08 100.056 272.135 101.353 270.406 101.353Z" fill="#9D9FA2"/>
<path d="M258.688 94.4071C257.607 96.4753 256.527 98.7905 255.508 101.167C255.385 101.445 255.199 101.507 255.014 101.26C254.551 100.612 254.304 99.7166 254.86 97.8645C255.632 95.2406 260.941 84.776 262.824 82.1521C263.102 81.7817 263.318 81.8126 263.565 82.2139C263.966 82.9239 264.121 84.4056 262.855 86.7208C262.052 88.1716 261.034 89.9929 259.922 92.0611C263.966 89.0359 268.288 85.1773 271.22 81.9978C271.436 81.7508 271.683 81.7817 271.807 82.0595C271.992 82.7387 271.961 83.7882 270.85 85.3008C269.461 87.1838 265.263 90.9498 261.095 93.8824C262.083 95.4567 262.917 96.8766 263.287 97.741C264.028 99.5005 263.75 100.581 263.287 101.167C263.102 101.384 262.886 101.384 262.731 101.106C261.558 98.8214 260.2 96.5988 258.688 94.4071Z" fill="#9D9FA2"/>
</g>
<g clip-path="url(#clip6_1_128)">
<g clip-path="url(#clip7_1_128)">
<path fill-rule="evenodd" clip-rule="evenodd" d="M245.067 135.676C244.033 135.676 243.041 136.087 242.309 136.819L238.779 140.349V141.965C238.779 143.106 239.269 144.134 240.051 144.847C239.269 145.56 238.779 146.587 238.779 147.729V149.345L242.309 152.875C243.041 153.606 244.033 154.017 245.067 154.017C246.209 154.017 247.236 153.527 247.949 152.745C248.663 153.527 249.69 154.017 250.831 154.017C251.866 154.017 252.858 153.606 253.589 152.875L257.119 149.345V147.729C257.119 146.587 256.629 145.56 255.847 144.847C256.629 144.134 257.119 143.106 257.119 141.965V140.349L253.589 136.819C252.858 136.087 251.866 135.676 250.831 135.676C249.69 135.676 248.663 136.167 247.949 136.948C247.236 136.167 246.209 135.676 245.067 135.676ZM250.59 144.847C250.546 144.807 250.502 144.766 250.46 144.723L247.949 142.212L245.438 144.723C245.396 144.766 245.353 144.807 245.309 144.847C245.353 144.887 245.396 144.928 245.438 144.971L247.949 147.482L250.46 144.971C250.502 144.928 250.546 144.887 250.59 144.847ZM248.968 149.345V150.116C248.968 151.145 249.802 151.98 250.831 151.98C251.325 151.98 251.799 151.783 252.148 151.434L255.081 148.501V147.729C255.081 146.7 254.247 145.866 253.218 145.866C252.724 145.866 252.251 146.062 251.901 146.412L248.968 149.345ZM246.93 149.345L243.997 146.412C243.648 146.062 243.174 145.866 242.68 145.866C241.651 145.866 240.817 146.7 240.817 147.729V148.501L243.75 151.434C244.099 151.783 244.573 151.98 245.067 151.98C246.096 151.98 246.93 151.145 246.93 150.116V149.345ZM246.93 139.577V140.349L243.997 143.282C243.648 143.632 243.174 143.828 242.68 143.828C241.651 143.828 240.817 142.994 240.817 141.965V141.193L243.75 138.26C244.099 137.911 244.573 137.714 245.067 137.714C246.096 137.714 246.93 138.548 246.93 139.577ZM251.901 143.282L248.968 140.349V139.577C248.968 138.548 249.802 137.714 250.831 137.714C251.325 137.714 251.799 137.911 252.148 138.26L255.081 141.193V141.965C255.081 142.994 254.247 143.828 253.218 143.828C252.724 143.828 252.251 143.632 251.901 143.282Z" fill="#9D9FA2"/>
</g>
<path d="M310.917 152.348C309.093 152.348 307.695 151.915 306.723 151.05C305.751 150.184 305.265 148.92 305.265 147.255V142.981C305.265 141.317 305.751 140.052 306.723 139.187C307.695 138.321 309.093 137.889 310.917 137.889C312.742 137.889 314.133 138.321 315.092 139.187C316.064 140.052 316.55 141.317 316.55 142.981V147.255C316.55 148.92 316.064 150.184 315.092 151.05C314.133 151.915 312.742 152.348 310.917 152.348ZM310.917 150.491C311.969 150.491 312.775 150.218 313.334 149.672C313.907 149.113 314.193 148.307 314.193 147.255V142.981C314.193 141.929 313.907 141.131 313.334 140.585C312.775 140.026 311.969 139.746 310.917 139.746C309.852 139.746 309.033 140.026 308.461 140.585C307.902 141.131 307.622 141.929 307.622 142.981V147.255C307.622 148.307 307.902 149.113 308.461 149.672C309.033 150.218 309.852 150.491 310.917 150.491Z" fill="#9D9FA2"/>
<path d="M301.846 138.128V149.213C301.846 150.171 301.646 150.897 301.247 151.389C300.861 151.869 300.242 152.108 299.39 152.108H297.732L292.799 141.823V152.108H290.582V138.128H293.278L298.97 150.091H299.07C299.283 150.091 299.43 150.005 299.509 149.832C299.589 149.645 299.629 149.326 299.629 148.873V138.128H301.846Z" fill="#9D9FA2"/>
<path d="M284.144 148.434H278.412L277.314 152.108H274.957L278.452 140.784C278.679 140.039 278.912 139.46 279.151 139.047C279.404 138.634 279.697 138.341 280.03 138.168C280.363 137.982 280.782 137.889 281.288 137.889C281.781 137.889 282.194 137.982 282.527 138.168C282.86 138.341 283.152 138.634 283.405 139.047C283.658 139.46 283.898 140.039 284.124 140.784L287.599 152.108H285.243L284.144 148.434ZM283.625 146.676L281.888 140.824C281.808 140.558 281.721 140.365 281.628 140.245C281.548 140.125 281.435 140.065 281.288 140.065C281.142 140.065 281.022 140.125 280.929 140.245C280.836 140.365 280.749 140.558 280.669 140.824L278.932 146.676H283.625Z" fill="#9D9FA2"/>
<path d="M268.612 139.986H264.278V138.128H275.282V139.986H270.968V152.108H268.612V139.986Z" fill="#9D9FA2"/>
</g>
<defs>
<clipPath id="clip0_1_128">
<rect width="93.9905" height="29.4787" fill="white" transform="translate(65.7465 23.649) scale(1.0028)"/>
</clipPath>
<clipPath id="clip1_1_128">
<rect width="96.7738" height="29.4787" fill="white" transform="translate(62.9554 76.8591) scale(1.0028)"/>
</clipPath>
<clipPath id="clip2_1_128">
<rect width="88.3743" height="29.4787" fill="white" transform="translate(71.3785 130.069) scale(1.0028)"/>
</clipPath>
<clipPath id="clip3_1_128">
<rect width="29.4787" height="19.6521" fill="white" transform="translate(73.5956 134.996) scale(1.0028)"/>
</clipPath>
<clipPath id="clip4_1_128">
<rect width="19.1612" height="19.1612" fill="white" transform="translate(250.218 28.8221) scale(1.0028)"/>
</clipPath>
<clipPath id="clip5_1_128">
<rect width="67.4874" height="29.4787" fill="white" transform="translate(252.324 76.8591) scale(1.0028)"/>
</clipPath>
<clipPath id="clip6_1_128">
<rect width="83.4732" height="29.4787" fill="white" transform="translate(236.293 130.069) scale(1.0028)"/>
</clipPath>
<clipPath id="clip7_1_128">
<rect width="18.289" height="18.747" fill="white" transform="translate(238.779 135.442) scale(1.0028)"/>
</clipPath>
</defs>
</svg>
