<svg width="143" height="83" viewBox="0 0 143 83" fill="none" xmlns="http://www.w3.org/2000/svg">
<mask id="path-1-inside-1_1_24" fill="white">
<path d="M0 0H143V82.5567H0V0Z"/>
</mask>
<path d="M143 0H141.526V82.5567H143H144.474V0H143Z" fill="#282828" mask="url(#path-1-inside-1_1_24)"/>
<path d="M69.1595 52.3398C71.0808 51.8 73.1767 51.9204 75.2144 52.7002C75.389 52.7602 75.5058 52.82 75.6803 52.8799C75.8549 52.9399 76.0878 53.0007 76.2625 53.0606L77.9513 53.4806L76.3211 54.0804C75.9717 54.2603 75.5057 54.3804 75.0982 54.5004L74.9233 54.56L74.6323 54.4398C74.4578 54.3799 74.3409 54.32 74.1663 54.2601C72.5361 53.7202 71.0218 53.7204 69.6244 54.0804C69.5082 54.1403 69.392 54.2004 69.2757 54.2005C69.101 54.2005 68.9259 54.3202 68.7512 54.3802L68.5764 54.4398L68.4025 54.3802C68.0532 54.2603 67.7037 54.1398 67.3545 54.0198L66.1892 53.5998L66.5389 53.4201L67.9366 52.7598C68.3441 52.5799 68.752 52.4598 69.1595 52.3398ZM82.4355 48.6799C82.2027 49.0998 81.911 49.4598 81.62 49.8198C81.5618 49.8797 81.5039 49.8802 81.5037 49.9399L81.3289 50.1206L81.2127 50.1802C77.7775 51.6801 74.9242 51.02 73.5266 50.4801C71.8379 49.82 70.1485 49.7602 68.5764 50.1802C67.3537 50.4802 66.1892 51.0804 65.1411 51.9803C65.0247 52.0404 64.9083 52.1606 64.8501 52.2206L64.5004 52.5205L64.1517 52.2802C63.977 52.1602 63.8598 52.1004 63.7434 51.9803C63.6852 51.9204 63.6854 51.8602 63.6272 51.8602L63.1036 51.3806L63.3361 51.1403L64.1517 50.4205C65.3162 49.5205 66.5974 48.8006 67.9366 48.4406C69.8579 47.9007 71.9537 48.0202 73.9915 48.8C76.4953 49.76 78.9995 49.4604 81.7362 47.9004L83.5998 46.8202L82.4355 48.6799ZM84.5317 41.8397C84.5317 42.1995 84.4731 42.6197 84.4731 42.9796V43.1603L84.2982 43.34C84.1819 43.4598 84.0658 43.5201 83.9495 43.6398C81.9697 45.3799 79.2907 46.9401 76.6121 47.2402C75.0983 47.4201 73.5845 47.24 72.1288 46.7C70.4403 46.04 68.7517 45.9802 67.1796 46.4001C65.4328 46.8802 63.918 47.8397 62.5205 49.3998C62.4623 49.4597 62.3463 49.58 62.288 49.64L61.8807 50.1802L61.531 49.64C61.4146 49.4001 61.2984 49.2197 61.1237 48.9798L60.8903 48.6203L61.1237 48.3204L61.8807 47.4804C63.3363 46.0405 64.9664 45.0804 66.7713 44.5404C68.6928 44.0004 70.7893 44.1199 72.8272 44.8999C77.1361 46.5799 80.979 44.0596 83.3664 41.7195C83.4828 41.5996 83.5997 41.48 83.7161 41.3601L84.5893 40.4595L84.5317 41.8397ZM83.7161 37.0399C83.8325 37.3399 83.9489 37.6399 84.0071 37.8799L84.1234 38.1798L83.8909 38.4201L83.8323 38.4796L82.9591 39.3802C77.6021 44.3602 72.8269 43.3401 70.9636 42.6201C69.2751 41.9602 67.5864 41.9003 66.0143 42.3202C63.6271 42.9803 61.9382 44.5999 60.7155 45.7399C60.6573 45.8597 60.5413 45.92 60.483 46.0397L59.9008 46.8202L59.5512 45.86C59.4929 45.5602 59.3769 45.2603 59.3187 44.9604L59.2601 44.7201L59.4349 44.5404C59.4931 44.4805 59.551 44.4801 59.5512 44.4203L60.4244 43.4601V43.5197C61.9383 42.0797 63.569 41.0601 65.4322 40.5201C67.3537 39.9801 69.4501 40.0996 71.4881 40.8795C76.0299 42.5596 79.9897 39.7995 82.5518 37.0995C82.6681 36.9797 82.7847 36.9195 82.8429 36.7996L83.425 36.1999L83.7161 37.0399ZM81.911 33.6799C82.0857 33.9199 82.2023 34.1602 82.3769 34.3402L82.6094 34.6996L82.3183 34.9399L81.5614 35.7203C79.5813 37.4604 75.0395 40.6998 69.7993 38.7199C68.1107 38.06 66.4222 38.0001 64.8501 38.4201C63.2197 38.9001 61.706 39.8 60.3667 41.24C60.1921 41.36 60.0749 41.54 59.9585 41.66L58.969 42.7402L59.0276 41.24C59.0858 40.88 59.0856 40.4595 59.1439 40.0395V39.8598L59.2601 39.7397C59.3765 39.6197 59.4347 39.5598 59.5512 39.4398L60.7741 38.4201C61.9386 37.64 63.1037 37.0395 64.3265 36.6795C66.2478 36.1397 68.3437 36.2601 70.3814 37.0399C74.6903 38.7199 78.476 36.2596 80.9216 33.8596C80.9799 33.7995 81.0959 33.6792 81.154 33.6193L81.5614 33.1993L81.911 33.6799ZM79.1165 30.9196C79.3494 31.0396 79.5817 31.2202 79.7563 31.4001L80.2808 31.8201L79.9898 32.0594L79.1165 32.7793C76.8456 34.5193 74.3996 35.4195 71.954 35.4195C70.7313 35.4195 69.625 35.2397 68.5187 34.8197C66.8302 34.1598 65.1416 34.1 63.5695 34.5199C63.2202 34.6399 62.8122 34.7599 62.4629 34.9399C62.2883 34.9999 62.0554 35.1195 61.7645 35.1196L59.9594 36.0798L61.0651 34.3402C61.298 33.9801 61.5892 33.6795 61.8221 33.3194C61.8803 33.2595 61.9383 33.2593 61.9383 33.1993L62.1132 33.0196L62.2294 32.96C62.4623 32.9 62.6379 32.8393 62.8125 32.7793C64.9086 32.1195 67.0048 32.3002 69.1009 33.0801C72.0123 34.2201 75.0986 33.5599 78.1847 31.1598C78.3011 31.0998 78.3594 30.9795 78.4758 30.9196L78.7669 30.6793L79.1165 30.9196ZM74.6909 28.9397C75.0984 28.9997 75.4482 29.1195 75.7975 29.2395L77.0194 29.6595L75.2144 30.5601C73.7589 31.16 72.3034 31.5192 70.7897 31.5193C69.334 31.5193 68.1691 31.2196 67.4121 30.9196L67.2372 30.86C67.0626 30.8 66.8878 30.7394 66.7713 30.7994L65.3746 30.3794L66.7137 29.7797C67.063 29.5997 67.4125 29.4797 67.7618 29.3597L67.9366 29.3001L68.1105 29.3597C68.2851 29.4197 68.4603 29.4794 68.635 29.5394C70.3236 30.0194 72.0708 29.8996 73.8176 29.2395C73.9922 29.1795 74.1666 29.0592 74.3412 28.9993L74.516 28.9397H74.6909Z" fill="white"/>
</svg>
