<svg width="10" height="10" viewBox="0 0 10 10" fill="none" xmlns="http://www.w3.org/2000/svg">
<path d="M7.87379 0C8.43776 2.9285e-05 8.97858 0.223852 9.37736 0.622638C9.7761 1.02144 10 1.56226 10 2.12621C9.99996 2.69016 9.77614 3.231 9.37736 3.62978L3.13734 9.8698C3.05377 9.95331 2.94049 9.99999 2.82234 10H0.445191C0.199116 10 0.000135861 9.80085 0 9.55481V7.17766C0 7.0595 0.0466782 6.94624 0.130197 6.86266L6.37022 0.622638C6.76903 0.223826 7.30979 -4.20217e-09 7.87379 0ZM0.890382 7.36245V9.10857H2.6386L7.83809 3.90907L6.09093 2.16191L0.890382 7.36245ZM7.87379 0.890382C7.54621 0.890382 7.23185 1.02099 7.00021 1.25262L6.72092 1.53192L8.46808 3.27908L8.74738 2.99979C8.97898 2.76818 9.10853 2.45374 9.10857 2.12621C9.10857 1.79868 8.97893 1.48425 8.74738 1.25262C8.51576 1.02101 8.20134 0.890411 7.87379 0.890382Z" fill="#D0D5DD"/>
</svg>
