<svg width="95" height="23" viewBox="0 0 95 23" fill="none" xmlns="http://www.w3.org/2000/svg">
<path d="M89.2556 14.8808H89.3821L92.4606 5.44935H95L89.9917 19.2246C89.7597 19.8573 89.4642 20.3924 89.1057 20.83C88.747 21.2731 88.3195 21.6062 87.8237 21.8278C87.3279 22.0493 86.7527 22.16 86.0987 22.16C85.7454 22.16 85.4234 22.1308 85.1333 22.0728C84.8433 22.0201 84.6269 21.9616 84.4845 21.8983L85.0549 19.9597C85.4873 20.0757 85.872 20.1264 86.2095 20.1106C86.547 20.0948 86.8449 19.9677 87.1033 19.7304C87.367 19.4931 87.5998 19.1058 87.8002 18.568L88.0923 17.7604L83.6465 5.44935H86.1781L89.2556 14.8808ZM7.49776 17.2194C8.91171 16.822 10.4546 16.91 11.9543 17.484C12.0185 17.506 12.0723 17.5276 12.1258 17.5496L12.2973 17.6163L12.7256 17.7486L13.9684 18.0583L12.7687 18.4994C12.5118 18.6318 12.1688 18.7198 11.869 18.8081L11.7396 18.8522L11.526 18.764C11.3974 18.7198 11.3115 18.6758 11.1829 18.6317C9.98327 18.2344 8.86908 18.2345 7.84079 18.4994C7.75518 18.5435 7.66962 18.5875 7.584 18.5876C7.45546 18.5876 7.32639 18.6757 7.19785 18.7199L7.06945 18.764L6.94106 18.7199C6.68404 18.6316 6.42674 18.5435 6.16972 18.4553L5.31312 18.1465L5.5699 18.0132L6.59803 17.5281C6.89779 17.3957 7.19799 17.3076 7.49776 17.2194ZM50.923 5.29057C52.0621 5.29064 53.0563 5.55252 53.9054 6.07465C54.7546 6.59684 55.4139 7.32989 55.8833 8.27399C56.3527 9.21809 56.5879 10.3203 56.588 11.5808C56.588 12.8362 56.3527 13.9341 55.8833 14.873C55.4138 15.8117 54.7545 16.5424 53.9054 17.0645C53.0563 17.5866 52.0621 17.8475 50.923 17.8476C49.7837 17.8476 48.7888 17.5867 47.9396 17.0645C47.0905 16.5424 46.4312 15.8117 45.9617 14.873C45.4923 13.9341 45.257 12.8362 45.257 11.5808C45.2571 10.3203 45.4923 9.21809 45.9617 8.27399C46.4311 7.3299 47.0905 6.59684 47.9396 6.07465C48.7888 5.55245 49.7836 5.29057 50.923 5.29057ZM31.6827 1.1771C32.5424 1.1771 33.3441 1.30067 34.0878 1.54856C34.8369 1.79119 35.5098 2.14998 36.1059 2.6247C36.7018 3.09412 37.1946 3.66933 37.5848 4.34968C37.9751 5.02483 38.2396 5.79731 38.3767 6.66761H35.9079C35.8129 6.14016 35.6361 5.67576 35.3776 5.27489C35.1192 4.87409 34.8024 4.53413 34.4279 4.25461C34.0535 3.97514 33.6345 3.76387 33.1705 3.62147C32.7116 3.47905 32.2231 3.4078 31.7062 3.4078C30.7727 3.40784 29.9365 3.64308 29.1981 4.11249C28.4651 4.58194 27.8847 5.27044 27.4575 6.17756C27.0356 7.08471 26.8243 8.19221 26.8243 9.5001C26.8243 10.8188 27.0355 11.932 27.4575 12.8393C27.8847 13.7465 28.4676 14.4324 29.206 14.8965C29.9444 15.3607 30.7753 15.5924 31.6984 15.5924C32.21 15.5924 32.6959 15.5237 33.1548 15.3866C33.6186 15.2442 34.0379 15.0363 34.4123 14.7622C34.7868 14.488 35.1035 14.1523 35.362 13.7567C35.6256 13.3559 35.8077 12.8973 35.9079 12.3806L38.3767 12.3884C38.2449 13.1848 37.989 13.918 37.6093 14.5878C37.2348 15.2524 36.7515 15.8275 36.1607 16.3128C35.5754 16.7926 34.9056 17.1644 34.1515 17.4281C33.3973 17.6919 32.5741 17.8241 31.6827 17.8241C30.2798 17.8241 29.0298 17.4917 27.9328 16.8273C26.8357 16.1574 25.9705 15.1995 25.3375 13.9546C24.7098 12.7098 24.3956 11.2249 24.3956 9.5001C24.3957 7.77004 24.7124 6.28508 25.3454 5.04555C25.9783 3.80082 26.8436 2.84628 27.9407 2.1817C29.0377 1.51189 30.285 1.1771 31.6827 1.1771ZM43.0489 17.6026H40.6839V1.3986H43.0489V17.6026ZM64.8051 5.29057C65.6332 5.29058 66.3585 5.46487 66.9809 5.81297C67.6032 6.15576 68.0857 6.66755 68.4285 7.3478C68.7714 8.02824 68.9431 8.87033 68.9431 9.87254V17.6026H66.5771V10.1568C66.5771 9.27596 66.348 8.58749 65.8891 8.0917C65.4303 7.59073 64.8 7.34005 63.9985 7.33996C63.4499 7.33996 62.9615 7.45935 62.5342 7.69672C62.1124 7.93405 61.7775 8.2818 61.5296 8.74052C61.287 9.19408 61.166 9.74271 61.166 10.3861V17.6026H58.8V5.44935H61.0709V7.42719H61.2209C61.5004 6.78375 61.9383 6.26698 62.5342 5.87667C63.1355 5.48634 63.8926 5.29057 64.8051 5.29057ZM74.0533 17.6026H71.6874V5.44935H74.0533V17.6026ZM81.2139 0.639024C81.6887 0.639024 82.0956 0.678495 82.4332 0.757616C82.7706 0.831431 83.0215 0.900164 83.1849 0.963437L82.6302 2.87757C82.5196 2.84598 82.3775 2.80892 82.2038 2.76682C82.0298 2.71936 81.8185 2.69627 81.5707 2.69625C80.9958 2.69625 80.5837 2.83781 80.3358 3.12259C80.0931 3.40743 79.9721 3.8195 79.9721 4.35752V5.44935H82.591V7.3478H79.9721V17.6026H77.6062V7.3478H75.7234V5.44935H77.6062V4.04095C77.6062 3.28151 77.7729 2.6514 78.1051 2.15034C78.4374 1.64396 78.8777 1.26624 79.4262 1.01832C79.9747 0.765205 80.5706 0.639083 81.2139 0.639024ZM17.2674 14.526C17.096 14.835 16.8817 15.1002 16.6676 15.365C16.6248 15.4089 16.5823 15.4091 16.5823 15.4532L16.4529 15.5855L16.3677 15.6296C13.8397 16.7334 11.7398 16.2475 10.7115 15.8502C9.46904 15.3646 8.22623 15.3206 7.06945 15.6296C6.16984 15.8504 5.31289 16.2916 4.54178 16.9537C4.45609 16.9979 4.36999 17.086 4.32714 17.1302L4.07035 17.3517L3.81356 17.1753C3.68502 17.0869 3.59935 17.0421 3.51365 16.9537C3.47088 16.9096 3.47023 16.8655 3.42741 16.8655L3.04223 16.5127L3.21374 16.3363L3.81356 15.8061C4.67038 15.1439 5.6127 14.6136 6.59803 14.3486C8.01198 13.9513 9.55488 14.0403 11.0545 14.6143C12.8969 15.3206 14.7392 15.0995 16.7528 13.9517L18.124 13.1568L17.2674 14.526ZM50.9308 7.26939C50.1872 7.26939 49.5699 7.4669 49.0794 7.86235C48.5942 8.25796 48.2328 8.7833 47.9954 9.43737C47.7634 10.086 47.6465 10.7978 47.6465 11.573C47.6465 12.3537 47.7634 13.0687 47.9954 13.7175C48.2328 14.3662 48.5942 14.8855 49.0794 15.2758C49.57 15.6661 50.1872 15.8619 50.9308 15.8619C51.669 15.8619 52.2804 15.666 52.7656 15.2758C53.2508 14.8855 53.6096 14.3662 53.8417 13.7175C54.0791 13.0687 54.1985 12.3537 54.1985 11.573C54.1985 10.7978 54.079 10.086 53.8417 9.43737C53.6096 8.7833 53.2509 8.25796 52.7656 7.86235C52.2804 7.46699 51.669 7.26946 50.9308 7.26939ZM18.8101 9.49226C18.8101 9.75709 18.767 10.0664 18.7669 10.3312V10.4635L18.6385 10.5968C18.5529 10.685 18.4674 10.7292 18.3818 10.8174C16.9249 12.0977 14.9534 13.2458 12.9824 13.4666C11.8684 13.599 10.7545 13.466 9.68338 13.0686C8.44083 12.583 7.19818 12.5391 6.04133 12.8481C4.75607 13.2013 3.64215 13.9076 2.61392 15.0553C2.57108 15.0994 2.48525 15.1885 2.44241 15.2327L2.1425 15.6296L1.88473 15.2327C1.79904 15.0561 1.71336 14.9232 1.58482 14.7466L1.41428 14.4819L1.58482 14.2614L2.1425 13.643C3.21367 12.5834 4.41317 11.8763 5.74142 11.4789C7.15535 11.0816 8.69831 11.1706 10.1979 11.7445C13.3684 12.9804 16.1958 11.1259 17.9525 9.40405C18.0382 9.31574 18.1245 9.22773 18.2102 9.13942L18.8522 8.47687L18.8101 9.49226ZM18.2102 5.95998C18.2959 6.18069 18.381 6.40184 18.4239 6.57842L18.5101 6.79895L18.3386 6.97536L18.2955 7.02045L17.6526 7.68201C13.7109 11.3462 10.1981 10.5964 8.82677 10.0666C7.58424 9.58094 6.34157 9.53704 5.18472 9.84607C3.42826 10.3317 2.18565 11.5231 1.28589 12.362C1.24304 12.4503 1.15722 12.4952 1.11437 12.5835L0.685089 13.1568L0.428303 12.4502C0.385443 12.2297 0.299619 12.0092 0.256786 11.7886L0.214642 11.6122L0.343035 11.4789C0.38578 11.4351 0.428303 11.4348 0.428303 11.3907L1.07125 10.6841V10.7291C2.18527 9.6695 3.38531 8.91834 4.75642 8.52098C6.17017 8.12377 7.71253 8.21179 9.21195 8.78561C12.554 10.0218 15.4674 7.9909 17.3526 6.00409C17.4383 5.91578 17.5244 5.87187 17.5673 5.78356L17.9956 5.34252L18.2102 5.95998ZM16.8822 3.48817C17.0105 3.66453 17.0959 3.841 17.2243 3.97332L17.3958 4.23795L17.1821 4.41535L16.6244 4.9887C15.1676 6.26911 11.8254 8.65386 7.96918 7.19687C6.72669 6.71128 5.48394 6.66632 4.32714 6.97536C3.12753 7.3286 2.01353 7.99166 1.02812 9.05121C0.899747 9.13952 0.813842 9.27171 0.728213 9.35994L0 10.1548L0.0431243 9.05121C0.0859577 8.78639 0.0855871 8.47711 0.128393 8.16814V8.03583L0.214642 7.94664C0.300051 7.85863 0.342752 7.81428 0.428303 7.72612L1.32803 6.97536C2.18497 6.4014 3.04218 5.96026 3.94196 5.69535C5.35591 5.29799 6.89882 5.38601 8.39847 5.95998C11.5689 7.19595 14.3535 5.3864 16.153 3.62049C16.1957 3.57645 16.2816 3.48833 16.3245 3.44407L16.6244 3.13436L16.8822 3.48817ZM14.825 1.45643C14.9964 1.54473 15.1679 1.67779 15.2964 1.81024L15.6826 2.11897L15.4679 2.29539L14.825 2.82562C13.154 4.10595 11.3545 4.76818 9.55498 4.76818C8.65534 4.76818 7.84127 4.63609 7.02731 4.32714C5.78486 3.84151 4.54204 3.79667 3.38526 4.10563C3.12818 4.19394 2.82788 4.28289 2.5708 4.41535C2.44237 4.45949 2.27114 4.54753 2.05723 4.54766L0.728213 5.25431L1.54268 3.97332C1.71404 3.7085 1.92803 3.48741 2.09937 3.22256C2.14219 3.1785 2.18562 3.17848 2.18562 3.13436L2.31401 3.00204L2.39928 2.95794C2.57051 2.91383 2.69917 2.86973 2.82759 2.82562C4.37008 2.33996 5.91311 2.47218 7.45561 3.04615C9.59796 3.88501 11.869 3.39988 14.1399 1.63382C14.2255 1.58967 14.2679 1.50058 14.3535 1.45643L14.5682 1.28001L14.825 1.45643ZM72.8821 0.749776C73.2935 0.749776 73.6446 0.888783 73.9347 1.16828C74.2301 1.44256 74.3777 1.77569 74.3777 2.16602C74.3777 2.55091 74.23 2.88331 73.9347 3.16278C73.6446 3.43707 73.2935 3.57442 72.8821 3.57442C72.4707 3.57441 72.117 3.43706 71.8216 3.16278C71.5317 2.88331 71.3866 2.55091 71.3865 2.16602C71.3865 1.77569 71.5315 1.44256 71.8216 1.16828C72.117 0.888786 72.4707 0.749785 72.8821 0.749776ZM11.5691 0C11.8688 0.0441532 12.1257 0.132287 12.3826 0.220522L13.2823 0.529253L11.9543 1.1918C10.8832 1.63326 9.81225 1.89839 8.69838 1.89845C7.6272 1.89845 6.76986 1.67719 6.21285 1.45643L6.08445 1.41232C5.95594 1.36818 5.82711 1.32412 5.74142 1.36822L4.7133 1.05949L5.69829 0.618442C5.95531 0.48602 6.21261 0.397013 6.46963 0.308731L6.59803 0.264627L6.7274 0.308731C6.85579 0.352832 6.98418 0.396943 7.11258 0.441044C8.35514 0.794258 9.64073 0.70619 10.9261 0.220522C11.0545 0.176391 11.1829 0.088276 11.3113 0.0441044L11.4397 0H11.5691Z" fill="#BDBDBD"/>
</svg>
